HIERARCHY
ROOT hip
{
  OFFSET 0 0 0
  CHANNELS 6 Xposition Yposition Zposition Zrotation Yrotation Xrotation
  JOINT abdomen
  {
    OFFSET 0 20.6881 -0.73152
    CHANNELS 3 Zrotation Xrotation Yrotation
    JOINT chest
    {
      OFFSET 0 11.7043 -0.48768
      CHANNELS 3 Zrotation Xrotation Yrotation
      JOINT neck
      {
        OFFSET 0 22.1894 -2.19456
        CHANNELS 3 Zrotation Xrotation Yrotation
        JOINT head
        {
          OFFSET -0.24384 7.07133 1.2192
          CHANNELS 3 Zrotation Xrotation Yrotation
          JOINT leftEye
          {
            OFFSET 4.14528 8.04674 8.04672
            CHANNELS 3 Zrotation Xrotation Yrotation
            End Site
            {
              OFFSET 1 0 0
            }
          }
          JOINT rightEye
          {
            OFFSET -3.6576 8.04674 8.04672
            CHANNELS 3 Zrotation Xrotation Yrotation
            End Site
            {
              OFFSET 1 0 0
            }
          }
        }
      }
      JOINT rCollar
      {
        OFFSET -2.68224 19.2634 -4.8768
        CHANNELS 3 Zrotation Xrotation Yrotation
        JOINT rShldr
        {
          OFFSET -8.77824 -1.95073 1.46304
          CHANNELS 3 Zrotation Xrotation Yrotation
          JOINT rForeArm
          {
            OFFSET -28.1742 -1.7115 0.48768
            CHANNELS 3 Zrotation Xrotation Yrotation
            JOINT rHand
            {
              OFFSET -22.5879 0.773209 7.07136
              CHANNELS 3 Zrotation Xrotation Yrotation
              JOINT rThumb1
              {
                OFFSET -1.2192 -0.487915 3.41376
                CHANNELS 3 Zrotation Xrotation Yrotation
                JOINT rThumb2
                {
                  OFFSET -3.37035 -0.52449 3.41376
                  CHANNELS 3 Zrotation Xrotation Yrotation
                  End Site
                  {
                    OFFSET -1.78271 -1.18214 1.43049
                  }
                }
              }
              JOINT rIndex1
              {
                OFFSET -7.75947 0.938293 5.60832
                CHANNELS 3 Zrotation Xrotation Yrotation
                JOINT rIndex2
                {
                  OFFSET -2.54057 -0.884171 1.56538
                  CHANNELS 3 Zrotation Xrotation Yrotation
                  End Site
                  {
                    OFFSET -1.62519 -0.234802 1.16502
                  }
                }
              }
              JOINT rMid1
              {
                OFFSET -8.24714 1.18213 3.41376
                CHANNELS 3 Zrotation Xrotation Yrotation
                JOINT rMid2
                {
                  OFFSET -3.10165 -0.590103 1.0647
                  CHANNELS 3 Zrotation Xrotation Yrotation
                  End Site
                  {
                    OFFSET -2.48547 -0.328903 0.83742
                  }
                }
              }
              JOINT rRing1
              {
                OFFSET -8.82822 0.546677 1.51678
                CHANNELS 3 Zrotation Xrotation Yrotation
                JOINT rRing2
                {
                  OFFSET -2.60934 -0.819778 -0.0198488
                  CHANNELS 3 Zrotation Xrotation Yrotation
                  End Site
                  {
                    OFFSET -2.33842 -0.294052 0.168128
                  }
                }
              }
              JOINT rPinky1
              {
                OFFSET -8.27202 -0.0477905 -0.4584
                CHANNELS 3 Zrotation Xrotation Yrotation
                JOINT rPinky2
                {
                  OFFSET -1.82734 -0.647385 -0.700984
                  CHANNELS 3 Zrotation Xrotation Yrotation
                  End Site
                  {
                    OFFSET -1.69225 -0.51767 -0.607171
                  }
                }
              }
            }
          }
        }
      }
      JOINT lCollar
      {
        OFFSET 2.68224 19.2634 -4.8768
        CHANNELS 3 Zrotation Xrotation Yrotation
        JOINT lShldr
        {
          OFFSET 8.77824 -1.95073 1.46304
          CHANNELS 3 Zrotation Xrotation Yrotation
          JOINT lForeArm
          {
            OFFSET 28.1742 -1.7115 0.48768
            CHANNELS 3 Zrotation Xrotation Yrotation
            JOINT lHand
            {
              OFFSET 22.5879 0.773209 7.07136
              CHANNELS 3 Zrotation Xrotation Yrotation
              JOINT lThumb1
              {
                OFFSET 1.2192 -0.487915 3.41376
                CHANNELS 3 Zrotation Xrotation Yrotation
                JOINT lThumb2
                {
                  OFFSET 3.37035 -0.52449 3.41376
                  CHANNELS 3 Zrotation Xrotation Yrotation
                  End Site
                  {
                    OFFSET 1.78271 -1.18214 1.43049
                  }
                }
              }
              JOINT lIndex1
              {
                OFFSET 7.75947 0.938293 5.60832
                CHANNELS 3 Zrotation Xrotation Yrotation
                JOINT lIndex2
                {
                  OFFSET 2.54057 -0.884171 1.56538
                  CHANNELS 3 Zrotation Xrotation Yrotation
                  End Site
                  {
                    OFFSET 1.62519 -0.234802 1.16502
                  }
                }
              }
              JOINT lMid1
              {
                OFFSET 8.24714 1.18213 3.41376
                CHANNELS 3 Zrotation Xrotation Yrotation
                JOINT lMid2
                {
                  OFFSET 3.10165 -0.590103 1.0647
                  CHANNELS 3 Zrotation Xrotation Yrotation
                  End Site
                  {
                    OFFSET 2.48547 -0.328903 0.83742
                  }
                }
              }
              JOINT lRing1
              {
                OFFSET 8.82822 0.546677 1.51678
                CHANNELS 3 Zrotation Xrotation Yrotation
                JOINT lRing2
                {
                  OFFSET 2.60934 -0.819778 -0.0198488
                  CHANNELS 3 Zrotation Xrotation Yrotation
                  End Site
                  {
                    OFFSET 2.33842 -0.294052 0.168128
                  }
                }
              }
              JOINT lPinky1
              {
                OFFSET 8.27202 -0.0477905 -0.4584
                CHANNELS 3 Zrotation Xrotation Yrotation
                JOINT lPinky2
                {
                  OFFSET 1.82734 -0.647385 -0.700984
                  CHANNELS 3 Zrotation Xrotation Yrotation
                  End Site
                  {
                    OFFSET 1.69225 -0.51767 -0.607171
                  }
                }
              }
            }
          }
        }
      }
    }
  }
  JOINT rButtock
  {
    OFFSET -8.77824 4.35084 1.2192
    CHANNELS 3 Zrotation Xrotation Yrotation
    JOINT rThigh
    {
      OFFSET 0 -1.70687 -2.19456
      CHANNELS 3 Zrotation Xrotation Yrotation
      JOINT rShin
      {
        OFFSET 0 -36.8199 0.73152
        CHANNELS 3 Zrotation Xrotation Yrotation
        JOINT rFoot
        {
          OFFSET 0.73152 -45.1104 -5.12064
          CHANNELS 3 Zrotation Xrotation Yrotation
          End Site
          {
            OFFSET -1.1221 -3.69964 12.103
          }
        }
      }
    }
  }
  JOINT lButtock
  {
    OFFSET 8.77824 4.35084 1.2192
    CHANNELS 3 Zrotation Xrotation Yrotation
    JOINT lThigh
    {
      OFFSET 0 -1.70687 -2.19456
      CHANNELS 3 Zrotation Xrotation Yrotation
      JOINT lShin
      {
        OFFSET 0 -36.8199 0.73152
        CHANNELS 3 Zrotation Xrotation Yrotation
        JOINT lFoot
        {
          OFFSET -0.73152 -45.1104 -5.12064
          CHANNELS 3 Zrotation Xrotation Yrotation
          End Site
          {
            OFFSET 1.1221 -3.69964 12.103
          }
        }
      }
    }
  }
}
MOTION
Frames:	8
Frame Time:	0.00833333
-16.2793 83.0696 187.741 0.0 0.0 0.0 -3.29164 -0.00200238 -0.0897132 -0.910501 0.0108249 -0.157567 -3.81414e-14 -2.38542e-15 3.47873e-16 -1.1545e-13 -6.36111e-15 1.09176e-15 -0.0 0.0 0.0 -0.0 0.0 0.0 -1.92358e-14 -2.52363e-16 3.47873e-16 -4.0319e-13 -5.44794e-15 3.37934e-15 -6.97699e-12 1.90018e-12 1.59028e-13 -7.97254e-11 -3.04953e-12 6.52014e-13 -1.88081e-10 -2.49381e-12 1.78111e-12 -3.24815e-10 -4.30965e-12 3.07719e-12 -1.88073e-10 -2.49077e-12 1.76521e-12 7.73091 5.47488 0.417314 -1.88081e-10 -2.49375e-12 1.77793e-12 2.90554 0.965183 0.102902 -1.8807e-10 -2.49326e-12 1.77554e-12 10.2786 0.731801 0.0259123 -1.88082e-10 -2.49316e-12 1.77793e-12 2.22167 -0.733487 -0.20892 -1.93296e-14 -2.57022e-16 -4.96962e-17 -4.07299e-13 -5.53491e-15 2.18663e-15 -6.96293e-12 -2.26336e-12 1.20861e-13 -7.97268e-11 1.1201e-12 6.96541e-13 -1.88043e-10 -2.47912e-12 1.78111e-12 -3.24728e-10 -4.28103e-12 3.08037e-12 -1.88048e-10 -2.47845e-12 1.78111e-12 -7.73091 5.47488 -0.417314 -1.88044e-10 -2.47904e-12 1.77475e-12 -2.90554 0.965183 -0.102902 -1.88052e-10 -2.47845e-12 1.77634e-12 -10.2786 0.731801 -0.0259123 -1.88041e-10 -2.47805e-12 1.76521e-12 -2.22167 -0.733487 0.20892 -2.03217e-16 0.0 -3.88251e-19 -2.14015 -1.93291 0.0183611 -0.00781146 -2.07877 -0.0636679 -0.356525 4.00069 0.117366 2.03217e-16 0.0 3.88251e-19 -2.88041 -9.67722 0.33895 -0.0100228 11.9464 -0.261579 0.458181 -2.28009 -0.00592661
-17.3947 78.2726 174.853 -174.509 -22.1753 -162.911 2.87193 -5.6936 -0.27063 -0.117305 1.90082 -0.668509 1.67561 -0.755758 1.3482 0.293239 6.65862 0.695018 -0.0 0.0 0.0 -0.0 0.0 0.0 -2.02899e-14 -4.83752e-14 5.117e-14 16.5586 7.44038 2.83071 -3.18612 -1.28892 5.13591 -0.000124847 -0.740109 -0.10399 -4.21276e-11 -3.12874e-10 2.59535e-10 -7.21875e-11 -5.41386e-10 4.48841e-10 -4.21205e-11 -3.12872e-10 2.59521e-10 7.73091 5.47488 0.417314 -4.21294e-11 -3.12874e-10 2.59534e-10 2.90554 0.965183 0.102902 -4.21186e-11 -3.12873e-10 2.59531e-10 10.2786 0.731801 0.0259123 -4.21318e-11 -3.12873e-10 2.59536e-10 2.22167 -0.733487 -0.20892 -2.03555e-14 -4.83805e-14 5.08143e-14 -20.313 17.3512 -1.79636 5.4604 -2.79082 -8.16567 -0.1475 -8.53864 1.15249 2.65769e-10 2.21257e-10 -2.88122e-10 4.65347e-10 3.89681e-10 -4.88292e-10 2.65765e-10 2.21256e-10 -2.88117e-10 -7.73091 5.47488 -0.417314 2.65769e-10 2.21255e-10 -2.88125e-10 -2.90554 0.965183 -0.102902 2.6576e-10 2.21255e-10 -2.88124e-10 -10.2786 0.731801 -0.0259123 2.65771e-10 2.21256e-10 -2.88133e-10 -2.22167 -0.733487 0.20892 -2.03217e-16 0.0 -3.88251e-19 2.13224 -13.0104 3.24178 0.00439958 9.11514 0.0831813 -0.43354 -0.456955 -2.16214 2.03217e-16 0.0 3.88251e-19 -1.2683 -19.242 -0.806844 -0.0102767 26.3584 -0.494015 0.0978696 0.620384 -1.99888
-17.5351 78.2113 174.449 -174.496 -21.9851 -163.024 9.3593 -11.7133 -0.459302 0.754696 3.8936 -1.20864 3.48726 -1.55809 2.77353 0.402016 13.6916 1.4678 -0.0 0.0 0.0 -0.0 0.0 0.0 -2.22712e-14 -9.84076e-14 1.17097e-13 33.2189 15.3694 5.99012 -6.31956 -2.6259 10.599 -0.00408787 -1.61249 -0.226633 2.98148e-11 -5.58449e-10 5.60307e-10 5.25978e-11 -9.66688e-10 9.69442e-10 2.98211e-11 -5.58448e-10 5.60295e-10 7.73091 5.47488 0.417314 2.98115e-11 -5.5845e-10 5.60308e-10 2.90554 0.965183 0.102902 2.98215e-11 -5.58448e-10 5.60304e-10 10.2786 0.731801 0.0259123 2.98076e-11 -5.58449e-10 5.60313e-10 2.22167 -0.733487 -0.20892 -2.23046e-14 -9.84131e-14 1.16786e-13 -40.3751 35.6643 -4.31461 10.3886 -5.56201 -16.877 0.0864313 -17.5336 2.45638 7.02586e-10 4.28331e-10 -5.96326e-10 1.22665e-09 7.55164e-10 -1.012e-09 7.02581e-10 4.28329e-10 -5.96316e-10 -7.73091 5.47488 -0.417314 7.02585e-10 4.28328e-10 -5.96326e-10 -2.90554 0.965183 -0.102902 7.02577e-10 4.28328e-10 -5.96324e-10 -10.2786 0.731801 -0.0259123 7.02587e-10 4.28328e-10 -5.96332e-10 -2.22167 -0.733487 0.20892 -2.03217e-16 0.0 -3.88251e-19 8.12983 -24.6112 7.11825 -0.0489972 20.9449 0.25179 -0.898236 -5.14007 -4.58054 2.03217e-16 0.0 3.88251e-19 -0.0293658 -29.2839 -2.1905 0.16287 41.5876 -0.856217 -0.0608077 3.76366 -4.17907
-17.6826 78.1507 174.026 -174.503 -21.7933 -163.151 15.0865 -17.0759 -0.657441 1.57065 5.67872 -1.69762 5.13351 -2.26225 4.04741 0.368856 19.9637 2.20345 -0.0 0.0 0.0 -0.0 0.0 0.0 -2.23981e-14 -1.44621e-13 1.52814e-13 47.3313 22.0944 9.09339 -8.87317 -3.74268 15.4376 -0.00843928 -2.2203 -0.312177 2.49779e-10 -9.33633e-10 7.75043e-10 4.33068e-10 -1.61554e-09 1.34037e-09 2.49784e-10 -9.33633e-10 7.75032e-10 7.73091 5.47488 0.417314 2.49774e-10 -9.33634e-10 7.75046e-10 2.90554 0.965183 0.102902 2.49784e-10 -9.33633e-10 7.75041e-10 10.2786 0.731801 0.0259123 2.49769e-10 -9.33633e-10 7.75053e-10 2.22167 -0.733487 -0.20892 -2.24072e-14 -1.44627e-13 1.52542e-13 -55.9822 51.7826 -8.33274 14.0577 -7.69367 -24.7048 0.682386 -25.5721 3.79097 1.17339e-09 6.68729e-10 -8.67928e-10 2.0455e-09 1.17761e-09 -1.47104e-09 1.17339e-09 6.68724e-10 -8.67915e-10 -7.73091 5.47488 -0.417314 1.17339e-09 6.68723e-10 -8.67925e-10 -2.90554 0.965183 -0.102902 1.17339e-09 6.68723e-10 -8.67923e-10 -10.2786 0.731801 -0.0259123 1.1734e-09 6.68723e-10 -8.67931e-10 -2.22167 -0.733487 0.20892 -2.03217e-16 0.0 -3.88251e-19 15.0918 -34.68 11.5031 -0.165258 31.5022 0.438232 -1.65884 -9.30826 -6.81047 2.03217e-16 0.0 3.88251e-19 0.530957 -38.3163 -3.76545 0.612876 55.1763 -1.42927 -0.0157971 6.38732 -6.02196
-17.8461 78.176 173.614 -174.566 -21.6047 -163.176 18.9849 -20.7967 -0.858829 2.17571 6.94657 -2.05215 6.29001 -2.72585 4.9399 0.357381 24.3454 2.73186 -0.0 0.0 0.0 -0.0 0.0 0.0 -1.78886e-14 -1.81287e-13 1.13009e-13 56.8643 26.036 11.4323 -10.4698 -4.43183 18.6855 -0.00576115 -2.1667 -0.304656 8.39797e-10 -1.63284e-09 7.74688e-10 1.45275e-09 -2.82326e-09 1.33711e-09 8.39802e-10 -1.63284e-09 7.74678e-10 7.73091 5.47488 0.417314 8.39791e-10 -1.63284e-09 7.74691e-10 2.90554 0.965183 0.102902 8.398e-10 -1.63284e-09 7.74687e-10 10.2786 0.731801 0.0259123 8.39786e-10 -1.63284e-09 7.747e-10 2.22167 -0.733487 -0.20892 -1.78938e-14 -1.81296e-13 1.12761e-13 -63.708 62.5966 -14.0336 16.2123 -8.88589 -30.1219 1.37003 -31.2602 4.89422 1.72918e-09 9.92432e-10 -1.04803e-09 3.0082e-09 1.74244e-09 -1.76836e-09 1.72918e-09 9.92427e-10 -1.04801e-09 -7.73091 5.47488 -0.417314 1.72918e-09 9.92425e-10 -1.04802e-09 -2.90554 0.965183 -0.102902 1.72918e-09 9.92425e-10 -1.04802e-09 -10.2786 0.731801 -0.0259123 1.72919e-09 9.92425e-10 -1.04803e-09 -2.22167 -0.733487 0.20892 -2.03217e-16 0.0 -3.88251e-19 21.1516 -41.3635 15.4837 -0.29897 38.8793 0.611215 -2.41356 -12.2531 -8.46869 2.03217e-16 0.0 3.88251e-19 0.419481 -44.8722 -5.27074 1.31628 64.6684 -2.19015 0.0524678 7.754 -6.9707
-18.0035 78.1755 173.205 -174.609 -21.4152 -163.219 20.3722 -22.2087 -1.05504 2.45785 7.4999 -2.21597 6.73251 -2.86787 5.29771 0.563659 26.0949 2.88493 -0.0 0.0 0.0 -0.0 0.0 0.0 -1.08881e-14 -2.17966e-13 -7.81499e-14 60.8757 26.1797 12.2721 -10.9114 -4.59155 19.6437 0.00630903 -1.05709 -0.148623 2.30423e-09 -3.24849e-09 4.79259e-10 3.9834e-09 -5.61293e-09 8.1849e-10 2.30424e-09 -3.24849e-09 4.7925e-10 7.73091 5.47488 0.417314 2.30423e-09 -3.24849e-09 4.79259e-10 2.90554 0.965183 0.102902 2.30424e-09 -3.24849e-09 4.79258e-10 10.2786 0.731801 0.0259123 2.30422e-09 -3.24849e-09 4.7927e-10 2.22167 -0.733487 -0.20892 -1.09248e-14 -2.17982e-13 -7.84015e-14 -64.8709 66.3191 -18.0812 16.8988 -9.20711 -32.0547 1.7354 -33.6816 5.41651 2.66438e-09 1.59925e-09 -1.19717e-09 4.6235e-09 2.79739e-09 -1.99982e-09 2.66437e-09 1.59924e-09 -1.19716e-09 -7.73091 5.47488 -0.417314 2.66438e-09 1.59924e-09 -1.19717e-09 -2.90554 0.965183 -0.102902 2.66437e-09 1.59924e-09 -1.19717e-09 -10.2786 0.731801 -0.0259123 2.66438e-09 1.59924e-09 -1.19717e-09 -2.22167 -0.733487 0.20892 -2.03217e-16 0.0 -3.88251e-19 23.8381 -43.6987 17.4035 -0.368218 41.8071 0.70742 -2.81861 -13.5364 -9.2465 2.03217e-16 0.0 3.88251e-19 0.0441025 -48.0106 -6.19099 1.79499 68.4812 -2.6749 -0.0363136 7.3473 -6.63041
-18.1638 78.1694 172.802 -174.666 -21.2243 -163.23 19.9809 -21.9722 -1.2401 2.50117 7.54285 -2.24204 6.65749 -2.78054 5.27306 0.970913 25.9662 2.74395 -0.0 0.0 0.0 -0.0 0.0 0.0 -1.91788e-15 -2.54018e-13 -3.75246e-13 61.1049 23.6562 11.9653 -10.5663 -4.39281 18.9648 0.0116188 0.800646 0.112337 4.37628e-09 -5.49669e-09 -2.72256e-11 7.56398e-09 -9.49449e-09 -6.86588e-11 4.37628e-09 -5.49669e-09 -2.72347e-11 7.73091 5.47488 0.417314 4.37628e-09 -5.49669e-09 -2.72297e-11 2.90554 0.965183 0.102902 4.37629e-09 -5.49669e-09 -2.72279e-11 10.2786 0.731801 0.0259123 4.37627e-09 -5.49669e-09 -2.72172e-11 2.22167 -0.733487 -0.20892 -2.0112e-15 -2.54044e-13 -3.7552e-13 -64.1548 65.2183 -18.2629 16.6626 -9.02244 -31.4781 1.73618 -33.7817 5.43303 3.85817e-09 2.40036e-09 -1.31959e-09 6.68346e-09 4.18858e-09 -2.17659e-09 3.85817e-09 2.40036e-09 -1.31957e-09 -7.73091 5.47488 -0.417314 3.85817e-09 2.40036e-09 -1.31959e-09 -2.90554 0.965183 -0.102902 3.85816e-09 2.40036e-09 -1.31958e-09 -10.2786 0.731801 -0.0259123 3.85817e-09 2.40036e-09 -1.31959e-09 -2.22167 -0.733487 0.20892 -2.03217e-16 0.0 -3.88251e-19 23.4569 -43.0742 17.332 -0.36058 41.5571 0.725106 -2.88491 -13.6494 -9.36646 2.03217e-16 0.0 3.88251e-19 -0.268049 -48.7256 -6.48783 1.75887 68.239 -2.61716 -0.201364 5.67027 -5.37629
-18.3269 78.1665 172.406 -174.734 -21.0291 -163.209 18.8659 -21.0931 -1.40859 2.44158 7.36828 -2.20952 6.36759 -2.58248 5.09368 1.45663 25.0772 2.48354 -0.0 0.0 0.0 -0.0 0.0 0.0 1.42399e-14 -2.68411e-13 -6.41722e-13 59.7522 20.1673 11.2315 -9.93154 -4.06747 17.7034 -0.00113489 2.74953 0.386499 6.12123e-09 -7.25743e-09 -6.27817e-10 1.05788e-08 -1.25336e-08 -1.1168e-09 6.12123e-09 -7.25743e-09 -6.27826e-10 7.73091 5.47488 0.417314 6.12123e-09 -7.25743e-09 -6.27825e-10 2.90554 0.965183 0.102902 6.12124e-09 -7.25743e-09 -6.2782e-10 10.2786 0.731801 0.0259123 6.12122e-09 -7.25743e-09 -6.27812e-10 2.22167 -0.733487 -0.20892 1.40916e-14 -2.68445e-13 -6.42017e-13 -62.7662 62.2066 -16.8456 16.0454 -8.62594 -29.9056 1.5843 -32.9676 5.24403 4.73872e-09 3.01282e-09 -1.27586e-09 8.19936e-09 5.24905e-09 -2.07465e-09 4.73871e-09 3.01282e-09 -1.27585e-09 -7.73091 5.47488 -0.417314 4.73872e-09 3.01281e-09 -1.27587e-09 -2.90554 0.965183 -0.102902 4.73871e-09 3.01281e-09 -1.27586e-09 -10.2786 0.731801 -0.0259123 4.73872e-09 3.01282e-09 -1.27587e-09 -2.22167 -0.733487 0.20892 -2.03217e-16 0.0 -3.88251e-19 21.8427 -41.2806 16.4783 -0.319739 40.032 0.709302 -2.80476 -13.294 -9.21233 2.03217e-16 0.0 3.88251e-19 -0.52757 -48.4616 -6.51182 1.50518 66.2954 -2.33085 -0.289814 3.53435 -3.77982
